<svg width="33" height="32" viewBox="0 0 33 32" fill="none" xmlns="http://www.w3.org/2000/svg">
<path d="M16.6605 29.3334C24.0243 29.3334 29.9938 23.3639 29.9938 16.0001C29.9938 8.63628 24.0243 2.66675 16.6605 2.66675C9.29669 2.66675 3.32715 8.63628 3.32715 16.0001C3.32715 23.3639 9.29669 29.3334 16.6605 29.3334Z" stroke="#FF0000" stroke-width="2.66667" stroke-linecap="round" stroke-linejoin="round"/>
<path d="M16.6602 24C21.0784 24 24.6602 20.4183 24.6602 16C24.6602 11.5817 21.0784 8 16.6602 8C12.2419 8 8.66016 11.5817 8.66016 16C8.66016 20.4183 12.2419 24 16.6602 24Z" stroke="#FF0000" stroke-width="2.66667" stroke-linecap="round" stroke-linejoin="round"/>
<path d="M16.6598 18.6666C18.1326 18.6666 19.3265 17.4727 19.3265 15.9999C19.3265 14.5272 18.1326 13.3333 16.6598 13.3333C15.1871 13.3333 13.9932 14.5272 13.9932 15.9999C13.9932 17.4727 15.1871 18.6666 16.6598 18.6666Z" stroke="#FF0000" stroke-width="2.66667" stroke-linecap="round" stroke-linejoin="round"/>
</svg>
