<svg width="33" height="32" viewBox="0 0 33 32" fill="none" xmlns="http://www.w3.org/2000/svg">
<path d="M16.3305 6.66657C16.3321 6.13328 16.227 5.60506 16.0214 5.11297C15.8159 4.62089 15.514 4.17487 15.1335 3.80117C14.7531 3.42746 14.3017 3.1336 13.806 2.93688C13.3104 2.74016 12.7803 2.64454 12.2472 2.65565C11.714 2.66677 11.1884 2.78439 10.7014 3.00159C10.2143 3.2188 9.77559 3.53121 9.41104 3.92044C9.04649 4.30968 8.76345 4.76788 8.57857 5.26811C8.39369 5.76833 8.31071 6.30047 8.3345 6.83324C7.55077 7.03475 6.82317 7.41197 6.20681 7.93632C5.59045 8.46067 5.10149 9.1184 4.77696 9.8597C4.45243 10.601 4.30085 11.4064 4.33369 12.215C4.36653 13.0235 4.58293 13.814 4.9665 14.5266C4.29208 15.0745 3.76174 15.7789 3.42162 16.5785C3.08151 17.3781 2.94191 18.2487 3.01499 19.1146C3.08806 19.9804 3.37159 20.8153 3.84091 21.5466C4.31023 22.2779 4.95112 22.8834 5.70784 23.3106C5.61439 24.0336 5.67016 24.768 5.87169 25.4686C6.07322 26.1692 6.41623 26.821 6.87955 27.3838C7.34287 27.9467 7.91665 28.4085 8.56546 28.7409C9.21427 29.0733 9.92434 29.2691 10.6518 29.3164C11.3793 29.3636 12.1087 29.2611 12.795 29.0154C13.4813 28.7696 14.11 28.3858 14.6422 27.8876C15.1744 27.3894 15.5987 26.7873 15.8891 26.1187C16.1795 25.45 16.3297 24.7289 16.3305 23.9999V6.66657Z" stroke="#7D1AFF" stroke-width="2.66667" stroke-linecap="round" stroke-linejoin="round"/>
<path d="M16.3301 6.66657C16.3285 6.13328 16.4336 5.60506 16.6392 5.11297C16.8447 4.62089 17.1466 4.17487 17.5271 3.80117C17.9075 3.42746 18.3589 3.1336 18.8546 2.93688C19.3502 2.74016 19.8803 2.64454 20.4134 2.65565C20.9466 2.66677 21.4722 2.78439 21.9592 3.00159C22.4463 3.2188 22.885 3.53121 23.2496 3.92044C23.6141 4.30968 23.8972 4.76788 24.082 5.26811C24.2669 5.76833 24.3499 6.30047 24.3261 6.83324C25.1098 7.03475 25.8374 7.41197 26.4538 7.93632C27.0701 8.46067 27.5591 9.1184 27.8836 9.8597C28.2082 10.601 28.3598 11.4064 28.3269 12.215C28.2941 13.0235 28.0777 13.814 27.6941 14.5266C28.3685 15.0745 28.8989 15.7789 29.239 16.5785C29.5791 17.3781 29.7187 18.2487 29.6456 19.1146C29.5725 19.9804 29.289 20.8153 28.8197 21.5466C28.3504 22.2779 27.7095 22.8834 26.9528 23.3106C27.0462 24.0336 26.9904 24.768 26.7889 25.4686C26.5874 26.1692 26.2444 26.821 25.781 27.3838C25.3177 27.9467 24.7439 28.4085 24.0951 28.7409C23.4463 29.0733 22.7363 29.2691 22.0088 29.3164C21.2813 29.3636 20.5519 29.2611 19.8656 29.0154C19.1793 28.7696 18.5506 28.3858 18.0184 27.8876C17.4862 27.3894 17.0619 26.7873 16.7715 26.1187C16.4811 25.45 16.3309 24.7289 16.3301 23.9999V6.66657Z" stroke="#7D1AFF" stroke-width="2.66667" stroke-linecap="round" stroke-linejoin="round"/>
<path d="M20.3301 17.3333C19.2107 16.9395 18.2332 16.2227 17.5212 15.2733C16.8092 14.324 16.3947 13.1849 16.3301 12C16.2655 13.1849 15.851 14.324 15.139 15.2733C14.427 16.2227 13.4495 16.9395 12.3301 17.3333" stroke="#7D1AFF" stroke-width="2.66667" stroke-linecap="round" stroke-linejoin="round"/>
<path d="M23.7959 8.66659C24.1186 8.10737 24.3011 7.47834 24.3279 6.83325" stroke="#7D1AFF" stroke-width="2.66667" stroke-linecap="round" stroke-linejoin="round"/>
<path d="M8.33398 6.83325C8.36035 7.47823 8.54242 8.10725 8.86465 8.66659" stroke="#7D1AFF" stroke-width="2.66667" stroke-linecap="round" stroke-linejoin="round"/>
<path d="M4.96582 14.528C5.20974 14.3293 5.47076 14.1527 5.74582 14" stroke="#7D1AFF" stroke-width="2.66667" stroke-linecap="round" stroke-linejoin="round"/>
<path d="M26.9141 14C27.1891 14.1527 27.4501 14.3293 27.6941 14.528" stroke="#7D1AFF" stroke-width="2.66667" stroke-linecap="round" stroke-linejoin="round"/>
<path d="M8.3297 24C7.4108 24.0004 6.50739 23.7634 5.70703 23.312" stroke="#7D1AFF" stroke-width="2.66667" stroke-linecap="round" stroke-linejoin="round"/>
<path d="M26.9527 23.312C26.1524 23.7634 25.249 24.0004 24.3301 24" stroke="#7D1AFF" stroke-width="2.66667" stroke-linecap="round" stroke-linejoin="round"/>
</svg>
