<svg width="33" height="32" viewBox="0 0 33 32" fill="none" xmlns="http://www.w3.org/2000/svg">
<path d="M21.6637 28V25.3333C21.6637 23.9188 21.1018 22.5623 20.1016 21.5621C19.1014 20.5619 17.7449 20 16.3304 20H8.3304C6.91592 20 5.55936 20.5619 4.55917 21.5621C3.55897 22.5623 2.99707 23.9188 2.99707 25.3333V28" stroke="#7D1AFF" stroke-width="2.66667" stroke-linecap="round" stroke-linejoin="round"/>
<path d="M12.3304 14.6667C15.2759 14.6667 17.6637 12.2789 17.6637 9.33333C17.6637 6.38781 15.2759 4 12.3304 4C9.38488 4 6.99707 6.38781 6.99707 9.33333C6.99707 12.2789 9.38488 14.6667 12.3304 14.6667Z" stroke="#7D1AFF" stroke-width="2.66667" stroke-linecap="round" stroke-linejoin="round"/>
<path d="M29.6631 28V25.3333C29.6622 24.1516 29.2689 23.0037 28.5449 22.0698C27.8209 21.1358 26.8073 20.4688 25.6631 20.1733" stroke="#7D1AFF" stroke-width="2.66667" stroke-linecap="round" stroke-linejoin="round"/>
<path d="M21.6631 4.17334C22.8103 4.46707 23.8271 5.13427 24.5533 6.06975C25.2794 7.00523 25.6735 8.15578 25.6735 9.34001C25.6735 10.5242 25.2794 11.6748 24.5533 12.6103C23.8271 13.5457 22.8103 14.2129 21.6631 14.5067" stroke="#7D1AFF" stroke-width="2.66667" stroke-linecap="round" stroke-linejoin="round"/>
</svg>
