<svg width="25" height="24" viewBox="0 0 25 24" fill="none" xmlns="http://www.w3.org/2000/svg">
<path d="M16.6602 21V19C16.6602 17.9391 16.2387 16.9217 15.4886 16.1716C14.7384 15.4214 13.721 15 12.6602 15H6.66016C5.59929 15 4.58187 15.4214 3.83173 16.1716C3.08158 16.9217 2.66016 17.9391 2.66016 19V21" stroke="#7D1AFF" stroke-width="2" stroke-linecap="round" stroke-linejoin="round"/>
<path d="M9.66016 11C11.8693 11 13.6602 9.20914 13.6602 7C13.6602 4.79086 11.8693 3 9.66016 3C7.45102 3 5.66016 4.79086 5.66016 7C5.66016 9.20914 7.45102 11 9.66016 11Z" stroke="#7D1AFF" stroke-width="2" stroke-linecap="round" stroke-linejoin="round"/>
<path d="M22.6602 20.9999V18.9999C22.6595 18.1136 22.3645 17.2527 21.8215 16.5522C21.2785 15.8517 20.5183 15.3515 19.6602 15.1299" stroke="#7D1AFF" stroke-width="2" stroke-linecap="round" stroke-linejoin="round"/>
<path d="M16.6602 3.12988C17.5206 3.35018 18.2832 3.85058 18.8278 4.55219C19.3724 5.2538 19.668 6.11671 19.668 7.00488C19.668 7.89305 19.3724 8.75596 18.8278 9.45757C18.2832 10.1592 17.5206 10.6596 16.6602 10.8799" stroke="#7D1AFF" stroke-width="2" stroke-linecap="round" stroke-linejoin="round"/>
</svg>
