<svg width="25" height="24" viewBox="0 0 25 24" fill="none" xmlns="http://www.w3.org/2000/svg">
<path d="M12.5053 2.29489C12.5491 2.20635 12.6168 2.13183 12.7008 2.07972C12.7847 2.02761 12.8815 2 12.9803 2C13.0791 2 13.1759 2.02761 13.2599 2.07972C13.3438 2.13183 13.4115 2.20635 13.4553 2.29489L15.7653 6.97389C15.9175 7.28186 16.1421 7.5483 16.4199 7.75035C16.6978 7.95239 17.0204 8.08401 17.3603 8.13389L22.5263 8.88989C22.6242 8.90408 22.7162 8.94537 22.7918 9.00909C22.8674 9.07282 22.9237 9.15644 22.9543 9.2505C22.9849 9.34456 22.9886 9.4453 22.9649 9.54133C22.9412 9.63736 22.8911 9.72485 22.8203 9.79389L19.0843 13.4319C18.8379 13.672 18.6536 13.9684 18.5472 14.2955C18.4407 14.6227 18.4154 14.9708 18.4733 15.3099L19.3553 20.4499C19.3726 20.5477 19.362 20.6485 19.3248 20.7406C19.2876 20.8327 19.2252 20.9125 19.1449 20.9709C19.0645 21.0293 18.9693 21.0639 18.8702 21.0708C18.7711 21.0777 18.672 21.0566 18.5843 21.0099L13.9663 18.5819C13.662 18.4221 13.3235 18.3386 12.9798 18.3386C12.6361 18.3386 12.2976 18.4221 11.9933 18.5819L7.37632 21.0099C7.28865 21.0563 7.18971 21.0772 7.09077 21.0701C6.99182 21.0631 6.89683 21.0285 6.81661 20.9701C6.73639 20.9118 6.67415 20.8321 6.63697 20.7401C6.59979 20.6482 6.58917 20.5476 6.60632 20.4499L7.48732 15.3109C7.54551 14.9716 7.5203 14.6233 7.41385 14.2959C7.30741 13.9686 7.12292 13.672 6.87632 13.4319L3.14032 9.79489C3.06891 9.72593 3.01831 9.63829 2.99428 9.54197C2.97025 9.44565 2.97375 9.34451 3.00439 9.25008C3.03504 9.15566 3.09158 9.07174 3.16759 9.00788C3.2436 8.94402 3.33602 8.90279 3.43432 8.88889L8.59932 8.13389C8.93957 8.08439 9.2627 7.95295 9.5409 7.75088C9.81909 7.54881 10.044 7.28216 10.1963 6.97389L12.5053 2.29489Z" stroke="#FF0000" stroke-width="2" stroke-linecap="round" stroke-linejoin="round"/>
</svg>
