<svg width="21" height="20" viewBox="0 0 21 20" fill="none" xmlns="http://www.w3.org/2000/svg">
<path d="M10.5 6.66675C14.6421 6.66675 18 5.54746 18 4.16675C18 2.78604 14.6421 1.66675 10.5 1.66675C6.35786 1.66675 3 2.78604 3 4.16675C3 5.54746 6.35786 6.66675 10.5 6.66675Z" stroke="#7D1AFF" stroke-width="1.66667" stroke-linecap="round" stroke-linejoin="round"/>
<path d="M3 4.16675V15.8334C3 16.4965 3.79018 17.1323 5.1967 17.6012C6.60322 18.07 8.51088 18.3334 10.5 18.3334C12.4891 18.3334 14.3968 18.07 15.8033 17.6012C17.2098 17.1323 18 16.4965 18 15.8334V4.16675" stroke="#7D1AFF" stroke-width="1.66667" stroke-linecap="round" stroke-linejoin="round"/>
<path d="M3 10C3 10.663 3.79018 11.2989 5.1967 11.7678C6.60322 12.2366 8.51088 12.5 10.5 12.5C12.4891 12.5 14.3968 12.2366 15.8033 11.7678C17.2098 11.2989 18 10.663 18 10" stroke="#7D1AFF" stroke-width="1.66667" stroke-linecap="round" stroke-linejoin="round"/>
</svg>
