<svg width="16" height="16" viewBox="0 0 16 16" fill="none" xmlns="http://www.w3.org/2000/svg">
<path d="M10.0002 14.6668V12.0002C10.0929 11.165 9.85347 10.3269 9.33352 9.66683C11.3335 9.66683 13.3335 8.3335 13.3335 6.00016C13.3869 5.16683 13.1535 4.34683 12.6669 3.66683C12.8535 2.90016 12.8535 2.10016 12.6669 1.3335C12.6669 1.3335 12.0002 1.3335 10.6669 2.3335C8.90685 2.00016 7.09352 2.00016 5.33352 2.3335C4.00019 1.3335 3.33352 1.3335 3.33352 1.3335C3.13352 2.10016 3.13352 2.90016 3.33352 3.66683C2.8481 4.34409 2.6125 5.16869 2.66685 6.00016C2.66685 8.3335 4.66685 9.66683 6.66685 9.66683C6.40685 9.9935 6.21352 10.3668 6.10019 10.7668C5.98685 11.1668 5.95352 11.5868 6.00019 12.0002V14.6668" stroke="#0F1729" stroke-width="1.33333" stroke-linecap="round" stroke-linejoin="round"/>
<path d="M5.99967 11.9998C2.99301 13.3332 2.66634 10.6665 1.33301 10.6665" stroke="#0F1729" stroke-width="1.33333" stroke-linecap="round" stroke-linejoin="round"/>
</svg>
