<svg width="24" height="28" viewBox="0 0 24 28" fill="none" xmlns="http://www.w3.org/2000/svg">
<path d="M12 12C16.9706 12 21 10.6569 21 9C21 7.34315 16.9706 6 12 6C7.02944 6 3 7.34315 3 9C3 10.6569 7.02944 12 12 12Z" stroke="#7D1AFF" stroke-width="2" stroke-linecap="round" stroke-linejoin="round"/>
<path d="M3 9V23C3 23.7956 3.94821 24.5587 5.63604 25.1213C7.32387 25.6839 9.61305 26 12 26C14.3869 26 16.6761 25.6839 18.364 25.1213C20.0518 24.5587 21 23.7956 21 23V9" stroke="#7D1AFF" stroke-width="2" stroke-linecap="round" stroke-linejoin="round"/>
<path d="M3 16C3 16.7956 3.94821 17.5587 5.63604 18.1213C7.32387 18.6839 9.61305 19 12 19C14.3869 19 16.6761 18.6839 18.364 18.1213C20.0518 17.5587 21 16.7956 21 16" stroke="#7D1AFF" stroke-width="2" stroke-linecap="round" stroke-linejoin="round"/>
</svg>
