<svg width="16" height="16" viewBox="0 0 16 16" fill="none" xmlns="http://www.w3.org/2000/svg">
<path d="M10.667 5.3335C11.7279 5.3335 12.7453 5.75492 13.4954 6.50507C14.2456 7.25521 14.667 8.27263 14.667 9.3335V14.0002H12.0003V9.3335C12.0003 8.97987 11.8598 8.64074 11.6098 8.39069C11.3598 8.14064 11.0206 8.00016 10.667 8.00016C10.3134 8.00016 9.97423 8.14064 9.72418 8.39069C9.47413 8.64074 9.33366 8.97987 9.33366 9.3335V14.0002H6.66699V9.3335C6.66699 8.27263 7.08842 7.25521 7.83857 6.50507C8.58871 5.75492 9.60613 5.3335 10.667 5.3335Z" stroke="#0F1729" stroke-width="1.33333" stroke-linecap="round" stroke-linejoin="round"/>
<path d="M3.99967 6H1.33301V14H3.99967V6Z" stroke="#0F1729" stroke-width="1.33333" stroke-linecap="round" stroke-linejoin="round"/>
<path d="M2.66634 4.00016C3.40272 4.00016 3.99967 3.40321 3.99967 2.66683C3.99967 1.93045 3.40272 1.3335 2.66634 1.3335C1.92996 1.3335 1.33301 1.93045 1.33301 2.66683C1.33301 3.40321 1.92996 4.00016 2.66634 4.00016Z" stroke="#0F1729" stroke-width="1.33333" stroke-linecap="round" stroke-linejoin="round"/>
</svg>
